<svg width="92" height="92" viewBox="0 0 92 92" fill="none" xmlns="http://www.w3.org/2000/svg">
<g clip-path="url(#clip0_641_692)">
<rect width="92" height="92" fill="#FFC5C5"/>
<path d="M54.3916 52.747L46.5339 44.8893L50.4619 40.9613C51.0334 40.3894 51.4732 39.6998 51.7508 38.9405C52.0284 38.1812 52.1371 37.3704 52.0693 36.5648C52.0015 35.7592 51.7588 34.9781 51.3581 34.2759C50.9575 33.5737 50.4085 32.9673 49.7495 32.499C48.6217 31.7495 47.2661 31.4212 45.9204 31.5715C44.5747 31.7218 43.3249 32.3412 42.3903 33.321L38.678 37.0333L30.822 29.1774C30.5637 28.9195 30.3588 28.6133 30.2189 28.2762C30.079 27.9392 30.0069 27.5778 30.0067 27.2128C30.0066 26.8479 30.0783 26.4865 30.2179 26.1493C30.3575 25.8121 30.5622 25.5057 30.8202 25.2476L38.678 17.3899L34.75 13.4619C34.1774 12.8894 33.7368 12.1987 33.459 11.4381C33.1812 10.6775 33.0728 9.86548 33.1415 9.05869C33.2102 8.25189 33.4543 7.46984 33.8567 6.76719C34.2591 6.06455 34.8101 5.45828 35.4712 4.99077C36.5981 4.24552 37.951 3.91991 39.2936 4.0708C40.6361 4.2217 41.883 4.83952 42.8163 5.81632L46.5286 9.52863L54.3846 1.67267C54.9059 1.15132 55.613 0.858427 56.3503 0.858427C57.0876 0.858427 57.7947 1.15132 58.3161 1.67267L66.1773 9.53393L69.8897 5.82162C70.8246 4.84397 72.0737 4.2264 73.4182 4.07709C74.7627 3.92777 76.1169 4.25622 77.2436 5.00491C77.9026 5.47321 78.4516 6.07959 78.8522 6.7818C79.2529 7.48401 79.4956 8.26514 79.5634 9.07075C79.6312 9.87637 79.5225 10.6871 79.2449 11.4464C78.9673 12.2057 78.5274 12.8953 77.956 13.4672L74.0333 17.3899L81.891 25.2476C82.1491 25.5057 82.3538 25.8121 82.4934 26.1493C82.6329 26.4865 82.7047 26.8479 82.7045 27.2128C82.7044 27.5778 82.6323 27.9392 82.4924 28.2762C82.3525 28.6133 82.1476 28.9195 81.8893 29.1774L75.9973 35.0693L72.0693 31.1413C71.4968 30.5688 70.8061 30.1282 70.0455 29.8504C69.2849 29.5725 68.4729 29.4642 67.6661 29.5329C66.8593 29.6016 66.0772 29.8456 65.3746 30.2481C64.672 30.6505 64.0657 31.2015 63.5982 31.8626C62.8522 32.9905 62.5266 34.3449 62.6785 35.6887C62.8304 37.0325 63.4501 38.28 64.429 39.213L68.1413 42.9253L58.3196 52.747C58.0619 53.0052 57.7557 53.2101 57.4187 53.3498C57.0817 53.4896 56.7205 53.5615 56.3556 53.5615C55.9908 53.5615 55.6295 53.4896 55.2925 53.3498C54.9555 53.2101 54.6494 53.0052 54.3916 52.747Z" fill="#B93939"/>
<path d="M63.747 66.3196L55.8893 74.1773L51.9613 70.2494C51.3894 69.6779 50.6998 69.238 49.9405 68.9604C49.1812 68.6828 48.3704 68.5741 47.5648 68.642C46.7592 68.7098 45.9781 68.9525 45.2759 69.3531C44.5737 69.7538 43.9673 70.3028 43.499 70.9618C42.7495 72.0895 42.4212 73.4452 42.5715 74.7909C42.7218 76.1366 43.3412 77.3864 44.321 78.321L48.0333 82.0333L40.1774 89.8893C39.9195 90.1476 39.6133 90.3525 39.2762 90.4924C38.9392 90.6323 38.5778 90.7044 38.2128 90.7045C37.8479 90.7047 37.4865 90.6329 37.1493 90.4934C36.8121 90.3538 36.5057 90.1491 36.2476 89.891L28.3899 82.0333L24.4619 85.9613C23.8894 86.5338 23.1987 86.9744 22.4381 87.2523C21.6775 87.5301 20.8655 87.6384 20.0587 87.5698C19.2519 87.5011 18.4698 87.257 17.7672 86.8546C17.0646 86.4522 16.4583 85.9011 15.9908 85.24C15.2455 84.1132 14.9199 82.7603 15.0708 81.4177C15.2217 80.0751 15.8395 78.8283 16.8163 77.895L20.5286 74.1827L12.6727 66.3267C12.1513 65.8053 11.8584 65.0982 11.8584 64.3609C11.8584 63.6236 12.1513 62.9165 12.6727 62.3952L20.5339 54.5339L16.8216 50.8216C15.844 49.8866 15.2264 48.6375 15.0771 47.293C14.9278 45.9486 15.2562 44.5944 16.0049 43.4677C16.4732 42.8087 17.0796 42.2597 17.7818 41.859C18.484 41.4584 19.2651 41.2157 20.0708 41.1479C20.8764 41.0801 21.6871 41.1887 22.4464 41.4664C23.2057 41.744 23.8953 42.1838 24.4672 42.7553L28.3899 46.678L36.2476 38.8202C36.5057 38.5622 36.8121 38.3575 37.1493 38.2179C37.4865 38.0783 37.8479 38.0066 38.2129 38.0067C38.5778 38.0069 38.9392 38.079 39.2762 38.2189C39.6133 38.3588 39.9195 38.5637 40.1774 38.822L46.0693 44.714L42.1413 48.642C41.5688 49.2145 41.1282 49.9052 40.8504 50.6658C40.5725 51.4263 40.4642 52.2384 40.5329 53.0452C40.6016 53.852 40.8457 54.634 41.2481 55.3367C41.6505 56.0393 42.2015 56.6456 42.8626 57.1131C43.9905 57.8591 45.3449 58.1846 46.6887 58.0327C48.0325 57.8809 49.28 57.2612 50.213 56.2822L53.9253 52.5699L63.747 62.3916C64.0052 62.6494 64.2101 62.9555 64.3498 63.2925C64.4896 63.6295 64.5615 63.9908 64.5615 64.3556C64.5615 64.7205 64.4896 65.0817 64.3498 65.4187C64.2101 65.7557 64.0052 66.0619 63.747 66.3196Z" fill="#B93939"/>
</g>
<defs>
<clipPath id="clip0_641_692">
<rect width="92" height="92" fill="white"/>
</clipPath>
</defs>
</svg>
