<svg width="92" height="92" viewBox="0 0 92 92" fill="none" xmlns="http://www.w3.org/2000/svg">
<g clip-path="url(#clip0_641_692)">
<rect width="92" height="92" fill="#FFC5C5"/>
<path d="M62.4243 64.3537L55.5178 71.2601L52.0654 67.8077C51.5628 67.3054 50.9566 66.9188 50.2892 66.6748C49.6218 66.4308 48.9093 66.3353 48.2012 66.3949C47.4931 66.4545 46.8065 66.6678 46.1893 67.02C45.5721 67.3721 45.0392 67.8546 44.6276 68.4339C43.9688 69.4251 43.6802 70.6166 43.8123 71.7994C43.9445 72.9822 44.4889 74.0807 45.3501 74.9021L48.613 78.165L41.7081 85.0699C41.4814 85.2969 41.2123 85.4771 40.916 85.6C40.6198 85.723 40.3022 85.7864 39.9814 85.7865C39.6606 85.7866 39.343 85.7236 39.0466 85.6009C38.7502 85.4782 38.4809 85.2983 38.2541 85.0715L31.3476 78.165L27.8952 81.6175C27.3919 82.1207 26.7849 82.508 26.1164 82.7522C25.4479 82.9964 24.7341 83.0916 24.025 83.0312C23.3159 82.9708 22.6285 82.7563 22.0109 82.4026C21.3934 82.0489 20.8605 81.5646 20.4496 80.9835C19.7946 79.9931 19.5084 78.804 19.641 77.624C19.7736 76.4439 20.3166 75.348 21.1752 74.5277L24.4381 71.2648L17.5332 64.3599C17.0749 63.9017 16.8175 63.2802 16.8175 62.6321C16.8175 61.9841 17.0749 61.3626 17.5332 60.9044L24.4427 53.9948L21.1798 50.7319C20.3205 49.9101 19.7777 48.8123 19.6465 47.6305C19.5153 46.4488 19.804 45.2586 20.462 44.2683C20.8736 43.6891 21.4066 43.2065 22.0238 42.8544C22.641 42.5022 23.3275 42.2889 24.0356 42.2293C24.7437 42.1697 25.4563 42.2652 26.1237 42.5092C26.791 42.7532 27.3972 43.1399 27.8998 43.6421L31.3476 47.0899L38.2541 40.1835C38.4809 39.9566 38.7502 39.7767 39.0466 39.6541C39.343 39.5314 39.6606 39.4683 39.9814 39.4684C40.3022 39.4686 40.6198 39.5319 40.916 39.6549C41.2123 39.7779 41.4814 39.958 41.7081 40.185L46.8867 45.3637L43.4343 48.8161C42.931 49.3194 42.5438 49.9264 42.2996 50.5949C42.0554 51.2634 41.9602 51.9772 42.0205 52.6863C42.0809 53.3954 42.2955 54.0828 42.6491 54.7004C43.0028 55.3179 43.4871 55.8508 44.0682 56.2617C45.0596 56.9174 46.25 57.2036 47.4311 57.0701C48.6122 56.9365 49.7087 56.3919 50.5287 55.5315L53.7916 52.2686L62.4243 60.9012C62.6512 61.1278 62.8313 61.3969 62.9541 61.6931C63.077 61.9893 63.1402 62.3068 63.1402 62.6275C63.1402 62.9481 63.077 63.2657 62.9541 63.5619C62.8313 63.8581 62.6512 64.1271 62.4243 64.3537Z" fill="#B93939"/>
<path d="M54.352 52.4243L47.4456 45.5178L50.898 42.0654C51.4003 41.5627 51.7869 40.9566 52.0309 40.2892C52.2749 39.6218 52.3704 38.9093 52.3108 38.2012C52.2512 37.4931 52.0379 36.8065 51.6858 36.1893C51.3336 35.5721 50.8511 35.0392 50.2719 34.6276C49.2806 33.9688 48.0891 33.6802 46.9063 33.8123C45.7235 33.9445 44.625 34.4889 43.8036 35.3501L40.5407 38.613L33.6358 31.7081C33.4088 31.4814 33.2286 31.2123 33.1057 30.916C32.9827 30.6198 32.9194 30.3022 32.9192 29.9814C32.9191 29.6606 32.9821 29.343 33.1048 29.0466C33.2275 28.7502 33.4074 28.4809 33.6342 28.2541L40.5407 21.3476L37.0882 17.8952C36.585 17.3919 36.1977 16.7849 35.9536 16.1164C35.7094 15.4479 35.6141 14.7341 35.6745 14.025C35.7349 13.3159 35.9494 12.6285 36.3031 12.0109C36.6568 11.3934 37.1411 10.8605 37.7222 10.4496C38.7126 9.79455 39.9017 9.50836 41.0818 9.64099C42.2618 9.77361 43.3577 10.3166 44.178 11.1752L47.4409 14.4381L54.3458 7.53318C54.804 7.07494 55.4255 6.81751 56.0736 6.81751C56.7216 6.81751 57.3431 7.07494 57.8014 7.53318L64.7109 14.4427L67.9738 11.1798C68.7956 10.3205 69.8935 9.77775 71.0752 9.64651C72.2569 9.51527 73.4471 9.80396 74.4374 10.462C75.0167 10.8736 75.4992 11.4066 75.8513 12.0238C76.2035 12.641 76.4168 13.3275 76.4764 14.0356C76.536 14.7437 76.4405 15.4563 76.1965 16.1237C75.9525 16.791 75.5659 17.3972 75.0636 17.8998L71.6158 21.3476L78.5222 28.2541C78.7491 28.4809 78.929 28.7502 79.0516 29.0466C79.1743 29.343 79.2374 29.6606 79.2373 29.9814C79.2371 30.3022 79.1738 30.6198 79.0508 30.916C78.9279 31.2123 78.7477 31.4814 78.5207 31.7081L73.342 36.8867L69.8896 33.4343C69.3863 32.931 68.7793 32.5438 68.1108 32.2996C67.4423 32.0554 66.7285 31.9602 66.0194 32.0205C65.3103 32.0809 64.6229 32.2955 64.0053 32.6491C63.3878 33.0028 62.8549 33.4871 62.444 34.0682C61.7883 35.0596 61.5022 36.25 61.6357 37.4311C61.7692 38.6122 62.3138 39.7087 63.1742 40.5287L66.4371 43.7916L57.8045 52.4243C57.5779 52.6512 57.3089 52.8313 57.0126 52.9541C56.7164 53.077 56.3989 53.1402 56.0782 53.1402C55.7576 53.1402 55.4401 53.077 55.1438 52.9541C54.8476 52.8313 54.5786 52.6512 54.352 52.4243Z" fill="#B93939"/>
</g>
<defs>
<clipPath id="clip0_641_692">
<rect width="92" height="92" rx="12" fill="white"/>
</clipPath>
</defs>
</svg>
