<svg width="16" height="16" viewBox="0 0 16 16" fill="none" xmlns="http://www.w3.org/2000/svg">
<g clip-path="url(#clip0_658_666)">
<path d="M3.85274 14.2872C3.75233 14.2296 3.66498 14.1516 3.59793 14.0572L3.59862 14.0566C3.49118 13.8941 3.4443 13.6991 3.46604 13.5055C3.48237 13.3602 3.53649 13.2228 3.6221 13.1064L3.7174 12.9973L4.32092 12.3937L3.08487 11.1577C3.01455 11.0874 2.97438 10.992 2.97438 10.8925C2.97439 10.7931 3.01455 10.6977 3.08487 10.6274L4.32161 9.39061L3.71809 8.78709C3.57714 8.6523 3.48758 8.47199 3.46604 8.27816C3.4499 8.13282 3.47314 7.98668 3.53095 7.85418L3.6007 7.72643C3.66792 7.6323 3.75502 7.55381 3.8555 7.49648C3.9564 7.43897 4.06847 7.40404 4.1842 7.39428C4.3001 7.38452 4.41746 7.39992 4.5267 7.43986C4.63562 7.47977 4.73463 7.54296 4.81673 7.62492L5.45202 8.26021L6.68807 7.02415L6.7447 6.9772C6.76506 6.96357 6.78687 6.9521 6.80961 6.94267C6.85507 6.92385 6.90403 6.91365 6.95324 6.91367C7.00246 6.91369 7.05141 6.92381 7.09687 6.94267C7.14226 6.96154 7.18367 6.98936 7.2184 7.02415L8.08364 7.88939L7.51879 8.45425L7.45249 8.52745C7.39135 8.60368 7.34323 8.69005 7.30955 8.78225C7.26468 8.90521 7.24669 9.03646 7.25776 9.16688C7.26888 9.29746 7.30864 9.42467 7.37377 9.53839C7.42252 9.62344 7.4851 9.69948 7.55815 9.76419L7.6348 9.82565L7.63687 9.82634C7.81902 9.94672 8.03794 9.99933 8.25489 9.97481C8.41741 9.95637 8.57141 9.8959 8.70167 9.8001L8.82251 9.69307L9.35492 9.16067L10.8209 10.6267L10.8679 10.6833C10.8815 10.7036 10.893 10.7255 10.9024 10.7482C10.9212 10.7936 10.9314 10.8426 10.9314 10.8918C10.9314 10.941 10.9212 10.9901 10.9024 11.0355C10.8836 11.0808 10.8557 11.1223 10.8209 11.157L9.6553 12.3226L9.08975 11.7571C8.9973 11.6648 8.88581 11.5941 8.76313 11.5492C8.64023 11.5043 8.50889 11.4865 8.3785 11.4974C8.24825 11.5084 8.12192 11.5473 8.00837 11.6121C7.92327 11.6606 7.84672 11.7229 7.78188 11.7957L7.72042 11.8724L7.71973 11.8745L7.64239 12.0167C7.57744 12.1654 7.55166 12.3294 7.56989 12.4925C7.59413 12.7094 7.69396 12.9107 7.85162 13.0615L8.38402 13.5939L7.2184 14.7595L7.16109 14.8058C7.14079 14.8194 7.11953 14.8316 7.09687 14.841C7.05141 14.8599 7.00246 14.87 6.95324 14.87C6.90403 14.87 6.85507 14.8598 6.80961 14.841C6.78687 14.8316 6.76506 14.8201 6.7447 14.8065L6.68807 14.7595L5.45202 13.5235L4.81604 14.1594L4.75113 14.2174C4.68334 14.2718 4.60663 14.3146 4.52463 14.3445C4.41535 14.3844 4.29874 14.4006 4.18282 14.3908C4.06675 14.3809 3.95383 14.3451 3.85274 14.2872Z" fill="#B93939" stroke="black" stroke-width="0.1"/>
<path d="M6.35729 2.11359C6.41484 2.01318 6.49293 1.92583 6.58724 1.85878L6.58793 1.85947C6.75039 1.75203 6.94542 1.70515 7.13898 1.72689C7.28428 1.74322 7.42164 1.79734 7.53811 1.88295L7.64721 1.97824L8.25074 2.58177L9.48679 1.34572C9.55711 1.2754 9.65252 1.23523 9.75196 1.23523C9.85139 1.23523 9.94681 1.2754 10.0171 1.34572L11.2539 2.58246L11.8574 1.97894C11.9922 1.83799 12.1725 1.74843 12.3663 1.72689C12.5117 1.71075 12.6578 1.73399 12.7903 1.7918L12.9181 1.86154C13.0122 1.92877 13.0907 2.01587 13.148 2.11635C13.2055 2.21725 13.2404 2.32932 13.2502 2.44505C13.26 2.56095 13.2446 2.67831 13.2046 2.78755C13.1647 2.89647 13.1015 2.99548 13.0196 3.07758L12.3843 3.71287L13.6203 4.94892L13.6673 5.00555C13.6809 5.02591 13.6924 5.04771 13.7018 5.07046C13.7206 5.11592 13.7308 5.16488 13.7308 5.21409C13.7308 5.2633 13.7207 5.31226 13.7018 5.35772C13.6829 5.40311 13.6551 5.44452 13.6203 5.47925L12.7551 6.34449L12.1902 5.77963L12.117 5.71334C12.0408 5.6522 11.9544 5.60408 11.8622 5.5704C11.7393 5.52553 11.608 5.50754 11.4776 5.51861C11.347 5.52973 11.2198 5.56949 11.1061 5.63462C11.021 5.68337 10.945 5.74594 10.8803 5.81899L10.8188 5.89564L10.8181 5.89772C10.6978 6.07986 10.6452 6.29879 10.6697 6.51574C10.6881 6.67826 10.7486 6.83226 10.8444 6.96252L10.9514 7.08336L11.4838 7.61576L10.0178 9.08177L9.96119 9.12872C9.94084 9.14236 9.91901 9.15381 9.89628 9.16325C9.85084 9.1821 9.80184 9.19225 9.75265 9.19225C9.70349 9.19224 9.65443 9.18208 9.60902 9.16325C9.5637 9.14441 9.52216 9.1165 9.48748 9.08177L8.32186 7.91615L8.88741 7.3506C8.9797 7.25815 9.05038 7.14666 9.09526 7.02398C9.14019 6.90108 9.15803 6.76974 9.14705 6.63935C9.13606 6.5091 9.09716 6.38277 9.03242 6.26922C8.98386 6.18412 8.92162 6.10757 8.84874 6.04273L8.77209 5.98127L8.77002 5.98058L8.62777 5.90324C8.47906 5.83829 8.31513 5.81251 8.15199 5.83073C7.93511 5.85498 7.73383 5.95481 7.58299 6.11247L7.05059 6.64487L5.88497 5.47925L5.8387 5.42194C5.82513 5.40164 5.8129 5.38038 5.80348 5.35772C5.78462 5.31226 5.7745 5.2633 5.77448 5.21409C5.77446 5.16488 5.78467 5.11592 5.80348 5.07046C5.81291 5.04772 5.8244 5.0259 5.83801 5.00555L5.88497 4.94892L7.12102 3.71287L6.48504 3.07688L6.42704 3.01197C6.37264 2.94419 6.32993 2.86748 6.29998 2.78548C6.26008 2.6762 6.24389 2.55959 6.25371 2.44366C6.2636 2.32759 6.2994 2.21468 6.35729 2.11359Z" fill="#B93939" stroke="black" stroke-width="0.1"/>
</g>
<defs>
<clipPath id="clip0_658_666">
<rect width="16" height="16" rx="4" fill="white"/>
</clipPath>
</defs>
</svg>
